<?xml version="1.0" encoding="utf-8"?>
<!-- Generator: Adobe Illustrator 22.0.0, SVG Export Plug-In . SVG Version: 6.00 Build 0)  -->
<svg version="1.1" id="图层_1" xmlns="http://www.w3.org/2000/svg" xmlns:xlink="http://www.w3.org/1999/xlink" x="0px" y="0px"
	 viewBox="0 0 25 21" style="enable-background:new 0 0 25 21;" xml:space="preserve">
<style type="text/css">
	.st0{fill:#4F4D4B;}
</style>
<title>arrow-right</title>
<desc>Created with Sketch.</desc>
<g id="Confirm-Send-ETH---V3" transform="translate(-500.000000, -235.000000)">
	<g id="Group-4" transform="translate(312.000000, 99.000000)">
		<g id="Group-18" transform="translate(109.000000, 119.000000)">
			<g id="arrow-right" transform="translate(78.000000, 17.000000)">
				<path id="Fill-1" class="st0" d="M13.3,0.5L13.3,0.5c-0.6,0.6-0.6,1.6,0,2.3l5.8,5.7H2.6C1.7,8.5,1,9.2,1,10.1v0
					c0,0.9,0.7,1.6,1.6,1.6h16.5l-5.8,5.7c-0.6,0.6-0.6,1.6,0,2.3c0.6,0.6,1.7,0.6,2.3,0l9.7-9.6l-9.7-9.6
					C14.9-0.2,13.9-0.2,13.3,0.5"/>
			</g>
		</g>
	</g>
</g>
</svg>
