<?xml version="1.0" encoding="utf-8"?>
<!-- Generator: Adobe Illustrator 22.0.0, SVG Export Plug-In . SVG Version: 6.00 Build 0)  -->
<svg version="1.1" id="图层_1" xmlns="http://www.w3.org/2000/svg" xmlns:xlink="http://www.w3.org/1999/xlink" x="0px" y="0px"
	 viewBox="0 0 200 200" style="enable-background:new 0 0 200 200;" xml:space="preserve">
<style type="text/css">
	.st0{fill:#ABD5FF;}
	.st1{fill:#80B9F2;}
	.st2{display:none;fill:#FFFFFF;}
	.st3{fill:#FFFFFF;}
	.st4{fill:none;stroke:#FFFFFF;stroke-width:1.4887;stroke-miterlimit:10;}
	.st5{fill:none;stroke:#FFFFFF;stroke-width:1.4887;stroke-linecap:round;stroke-miterlimit:10;}
</style>
<path class="st0" d="M165.4,54.4l-18.6-41.5c-0.9-2-3-2.7-5-2L49.4,52.5c-3.8,1.7-2.6,7.2,1.5,7.2h111.1
	C164.8,59.6,166.6,56.9,165.4,54.4z"/>
<path class="st1" d="M181.7,111h14.5c0.5,0,0.5,0,0.5-0.2V77.3c0-5.7-4.7-10.3-10.3-10.3H14.7C9,67,4.4,71.7,4.4,77.3V174
	c0,5.7,4.7,10.3,10.3,10.3h171.7c5.7,0,10.3-4.7,10.3-10.3v-33.4c0,0,0-0.2-0.2-0.2H181c-8.8,0-15.9-7.9-14.5-16.9
	C167.8,116.3,174.3,111,181.7,111z"/>
<path class="st1" d="M177.9,126.5c0,3.5,2.9,6.3,6.3,6.3s6.3-2.9,6.3-6.3c0-3.5-2.9-6.3-6.3-6.3S177.9,123.1,177.9,126.5z"/>
<path class="st2" d="M122.4,96.5l-15.7,26.3h13.6v4.7h-16.6v7.4h16.8v4.7h-16.8v15.6h-6.2v-15.6H80.8v-4.7h16.6v-7.4H80.8v-4.7h13.6
	L78.9,96.5h6.9l15.1,25.8l14.9-25.8H122.4z"/>
<g id="LOGO_2_">
	
		<rect x="93.2" y="119.1" transform="matrix(0.7071 -0.7071 0.7071 0.7071 -59.993 108.2045)" class="st3" width="14.8" height="14.8"/>
	
		<rect x="79" y="104.9" transform="matrix(0.7071 -0.7071 0.7071 0.7071 -59.993 108.2045)" class="st4" width="43.2" height="43.2"/>
	<polygon class="st5" points="100.6,84.2 76.1,126.5 100.6,168.9 125,126.5 	"/>
</g>
</svg>
