<?xml version="1.0" encoding="utf-8"?>
<!-- Generator: Adobe Illustrator 22.0.0, SVG Export Plug-In . SVG Version: 6.00 Build 0)  -->
<svg version="1.1" id="图层_1" xmlns="http://www.w3.org/2000/svg" xmlns:xlink="http://www.w3.org/1999/xlink" x="0px" y="0px"
	 viewBox="0 0 256 417" style="enable-background:new 0 0 256 417;" xml:space="preserve">
<style type="text/css">
	.st0{display:none;}
	.st1{display:inline;fill:#343434;}
	.st2{display:inline;fill:#8C8C8C;}
	.st3{display:inline;fill:#3C3C3B;}
	.st4{display:inline;fill:#141414;}
	.st5{display:inline;fill:#393939;}
	.st6{fill:#178BFD;}
	.st7{fill:none;stroke:#178BFD;stroke-width:5.9195;stroke-miterlimit:10;}
	.st8{fill:none;stroke:#178BFD;stroke-width:5.9195;stroke-linecap:round;stroke-miterlimit:10;}
</style>
<g class="st0">
	<polygon class="st1" points="128,0 125.2,9.5 125.2,285.2 128,288 255.9,212.3 	"/>
	<polygon class="st2" points="128,0 0,212.3 128,288 128,154.2 	"/>
	<polygon class="st3" points="128,312.2 126.4,314.1 126.4,412.3 128,416.9 256,236.6 	"/>
	<polygon class="st2" points="128,416.9 128,312.2 0,236.6 	"/>
	<polygon class="st4" points="128,288 255.9,212.3 128,154.2 	"/>
	<polygon class="st5" points="0,212.3 128,288 128,154.2 	"/>
</g>
<g id="LOGO_2_">
	
		<rect x="98.4" y="178.9" transform="matrix(0.7071 -0.7071 0.7071 0.7071 -109.9405 151.5755)" class="st6" width="59.2" height="59.2"/>
	
		<rect x="42.2" y="122.7" transform="matrix(0.7071 -0.7071 0.7071 0.7071 -109.9405 151.5755)" class="st7" width="171.6" height="171.6"/>
	<polygon class="st8" points="128,40.1 30.8,208.5 128,376.9 225.2,208.5 	"/>
</g>
</svg>
