<?xml version="1.0" encoding="utf-8"?>
<!-- Generator: Adobe Illustrator 22.0.0, SVG Export Plug-In . SVG Version: 6.00 Build 0)  -->
<svg version="1.1" id="Layer_1" xmlns="http://www.w3.org/2000/svg" xmlns:xlink="http://www.w3.org/1999/xlink" x="0px" y="0px"
	 viewBox="0 0 24.1 24" style="enable-background:new 0 0 24.1 24;" xml:space="preserve">
<style type="text/css">
	.st0{fill:#4F4D4B;}
</style>
<g>
	<path class="st0" d="M15.9,2c-1.5-1.2-3.2-1.6-5.4-1.6c-1.6,0-3.1,0.3-4.2,1.1c-1.6,1.1-2.4,3-2.4,6h4.2c0-0.8-0.1-1.7,0.4-2.4
		C9,4.4,9.6,3.8,10.7,3.8c1.1,0,1.7,0.3,2.3,1c0.5,0.6,0.6,1.3,0.6,2c0,0.6-0.3,1.2-0.7,1.7c-0.2,0.3-0.5,0.6-0.8,0.9
		c0,0-2.3,1.4-3.1,2.7c-0.6,1-0.8,2.2-0.9,3.6c0,0.1,0,0.3,0.4,0.3c0.4,0,3.1,0,3.4,0s0.4-0.2,0.4-0.3c0-0.5,0.1-1.3,0.2-1.6
		c0.2-0.6,0.5-1.1,1.1-1.5l1.1-0.8c1-0.8,1.9-1.5,2.2-2C17.6,8.9,18,7.8,18,6.6C18,4.6,17.3,3.1,15.9,2z M10.2,18.2
		c-1.4,0-2.6,1-2.7,2.5c0,1.6,1.1,2.6,2.5,2.6c1.5,0,2.6-0.9,2.7-2.5C12.7,19.3,11.7,18.2,10.2,18.2z"/>
</g>
</svg>
