<?xml version="1.0" encoding="utf-8"?>
<!-- Generator: Adobe Illustrator 22.0.0, SVG Export Plug-In . SVG Version: 6.00 Build 0)  -->
<svg version="1.1" id="Layer_1" xmlns="http://www.w3.org/2000/svg" xmlns:xlink="http://www.w3.org/1999/xlink" x="0px" y="0px"
	 viewBox="0 0 24.1 24" style="enable-background:new 0 0 24.1 24;" xml:space="preserve">
<style type="text/css">
	.st0{fill:#4F4D4B;}
</style>
<path class="st0" d="M20.4,24h-16c-1.1,0-2-0.9-2-2V12c0-1.1,0.9-2,2-2h1V7c0-3.9,3.1-7,7-7s7,3.1,7,7v3h1c1.1,0,2,0.9,2,2v10
	C22.4,23.1,21.5,24,20.4,24z M16.4,7c0-2.2-1.8-4-4-4s-4,1.8-4,4v3h8V7z"/>
</svg>
