<?xml version="1.0" encoding="utf-8"?>
<!-- Generator: Adobe Illustrator 22.0.0, SVG Export Plug-In . SVG Version: 6.00 Build 0)  -->
<svg version="1.1" id="Layer_1" xmlns="http://www.w3.org/2000/svg" xmlns:xlink="http://www.w3.org/1999/xlink" x="0px" y="0px"
	 viewBox="0 0 24.1 24" style="enable-background:new 0 0 24.1 24;" xml:space="preserve">
<style type="text/css">
	.st0{fill:#4F4D4B;}
</style>
<g>
	<rect x="6.1" y="6.2" class="st0" width="2" height="2"/>
	<path class="st0" d="M5.1,5.2h4v4h-4V5.2z M4.1,10.2h6v-6h-6V10.2z"/>
	<rect x="16.1" y="6.2" class="st0" width="2" height="2"/>
	<path class="st0" d="M14.1,10.2h6v-6h-6V10.2z M19.1,9.2h-4v-4h4V9.2z"/>
	<rect x="6.1" y="16.2" class="st0" width="2" height="2"/>
	<path class="st0" d="M5.1,15.2h4v4h-4V15.2z M4.1,20.2h6v-6h-6V20.2z"/>
	<polygon class="st0" points="11.1,15.2 11.1,16.2 12.1,16.2 12.1,18.2 13.1,18.2 13.1,14.2 12.1,14.2 12.1,15.2 	"/>
	<path class="st0" d="M15.1,16.2h1v1h-1V16.2z M17.1,15.2h1v2h-1V15.2z M12.1,9.2v1h-1v1h1v2h2v5h1v1h-1v1h2v-1h1v-1h1v1h-0.9v1h2.9
		v-2h-1v-2h1v-1h-1v-2h-1v1h-1v1h-2v-2h1v1h1v-1h1v-1h-1v-1h-1v1h-1v-1h-2v-2H12.1z"/>
	<polygon class="st0" points="13.1,7.2 13.1,4.2 11.1,4.2 11.1,5.2 12.1,5.2 12.1,6.2 11.1,6.2 11.1,9.2 12.1,9.2 12.1,7.2 	"/>
	<rect x="7.1" y="11.2" class="st0" width="1" height="1"/>
	<polygon class="st0" points="9.1,11.2 9.1,12.2 8.1,12.2 8.1,13.2 10.1,13.2 10.1,12.2 11.1,12.2 11.1,11.2 	"/>
	<polygon class="st0" points="18.1,11.2 18.1,12.2 19.1,12.2 19.1,13.2 20.1,13.2 20.1,11.2 	"/>
	<rect x="11.1" y="13.2" class="st0" width="1" height="1"/>
	<rect x="11.1" y="18.2" class="st0" width="1" height="1"/>
	<rect x="12.1" y="19.2" class="st0" width="1" height="1"/>
	<polygon class="st0" points="4.1,11.2 4.1,13.2 7.1,13.2 7.1,12.2 6.1,12.2 6.1,11.2 	"/>
</g>
</svg>
