<?xml version="1.0" encoding="utf-8"?>
<!-- Generator: Adobe Illustrator 22.0.0, SVG Export Plug-In . SVG Version: 6.00 Build 0)  -->
<svg version="1.1" id="图层_1" xmlns="http://www.w3.org/2000/svg" xmlns:xlink="http://www.w3.org/1999/xlink" x="0px" y="0px"
	 viewBox="0 0 20 20" style="enable-background:new 0 0 20 20;" xml:space="preserve">
<style type="text/css">
	.st0{filter:url(#Adobe_OpacityMaskFilter);}
	.st1{fill:#FFFFFF;}
	.st2{mask:url(#mask-2_1_);fill:#4F4D4B;}
</style>
<title>settings</title>
<desc>Created with Sketch.</desc>
<g id="MetaMascara-v2">
	<g id="account-dropdown-top-bar-IXD" transform="translate(-25.000000, -826.000000)">
		<g id="Group-6" transform="translate(4.000000, 646.000000)">
			<g id="settings" transform="translate(21.000000, 180.000000)">
				<g id="Clip-2">
				</g>
				<defs>
					<filter id="Adobe_OpacityMaskFilter" filterUnits="userSpaceOnUse" x="0" y="0" width="20" height="20">
						<feColorMatrix  type="matrix" values="1 0 0 0 0  0 1 0 0 0  0 0 1 0 0  0 0 0 1 0"/>
					</filter>
				</defs>
				<mask maskUnits="userSpaceOnUse" x="0" y="0" width="20" height="20" id="mask-2_1_">
					<g class="st0">
						<polygon id="path-1_1_" class="st1" points="20,10 20,20 0,20 0,10 0,0 20,0 						"/>
					</g>
				</mask>
				<path id="Fill-1" class="st2" d="M10,13.7c-2,0-3.7-1.6-3.7-3.7C6.3,8,8,6.3,10,6.3S13.7,8,13.7,10C13.7,12,12,13.7,10,13.7
					L10,13.7z M19.2,11.8c0.4,0,0.7-0.3,0.8-0.7c0,0,0.1-0.5,0.1-1.1s-0.1-1.1-0.1-1.1c-0.1-0.4-0.4-0.7-0.8-0.7h-1.9
					c-0.4,0-0.8-0.2-0.9-0.5c-0.1-0.3-0.2-1.2,0-1.5l1.4-1.4c0.3-0.3,0.3-0.7,0-1l-1.6-1.6c-0.3-0.2-0.7-0.2-1,0l-1.4,1.4
					c-0.3,0.3-0.7,0.4-1,0.2c-0.3-0.1-1-0.7-1-1.1V0.8c0-0.4-0.3-0.7-0.7-0.8c0,0-0.5-0.1-1.1-0.1C9.4,0,8.9,0.1,8.9,0.1
					c-0.4,0-0.7,0.4-0.7,0.8v1.9c0,0.4-0.2,0.8-0.5,0.9c-0.3,0.1-1.2,0.2-1.5,0L4.8,2.2C4.5,2,4.1,2,3.8,2.2L2.2,3.8
					C2,4.1,2,4.5,2.2,4.8l1.4,1.4c0.3,0.3,0.4,0.7,0.2,1c-0.1,0.3-0.7,1-1.1,1H0.8c-0.4,0-0.7,0.3-0.8,0.7C0.1,8.9,0,9.4,0,10
					s0.1,1.1,0.1,1.1c0.1,0.4,0.4,0.7,0.8,0.7h1.9c0.4,0,0.8,0.2,0.9,0.5c0.1,0.3,0.2,1.2,0,1.5l-1.4,1.4c-0.3,0.3-0.3,0.7,0,1
					l1.6,1.6c0.3,0.2,0.7,0.2,1,0l1.4-1.4c0.3-0.3,0.7-0.4,1-0.2c0.3,0.1,1,0.7,1,1.1v1.9c0,0.4,0.3,0.7,0.7,0.8
					c0,0,0.5,0.1,1.1,0.1c0.6,0,1.1-0.1,1.1-0.1c0.4-0.1,0.7-0.4,0.7-0.8v-1.9c0-0.4,0.2-0.8,0.5-0.9c0.3-0.1,1.2-0.2,1.5,0l1.4,1.4
					c0.3,0.3,0.7,0.3,1,0l1.6-1.6c0.2-0.3,0.2-0.7,0-1l-1.4-1.4c-0.3-0.3-0.4-0.7-0.2-1c0.1-0.3,0.7-1,1.1-1H19.2z"/>
			</g>
		</g>
	</g>
</g>
</svg>
