<?xml version="1.0" encoding="utf-8"?>
<!-- Generator: Adobe Illustrator 22.0.0, SVG Export Plug-In . SVG Version: 6.00 Build 0)  -->
<svg version="1.1" id="图层_1" xmlns="http://www.w3.org/2000/svg" xmlns:xlink="http://www.w3.org/1999/xlink" x="0px" y="0px"
	 viewBox="0 0 33 32" style="enable-background:new 0 0 33 32;" xml:space="preserve">
<style type="text/css">
	.st0{fill:none;stroke:#FF2948;stroke-width:2;}
	.st1{fill:#FF2948;}
</style>
<title>Group 7</title>
<desc>Created with Sketch.</desc>
<g id="Reveal-Seedphrase">
	<g id="Seed-phrase-2" transform="translate(-29.000000, -155.000000)">
		<g id="Group-2" transform="translate(0.000000, 132.000000)">
			<g id="Group" transform="translate(28.000000, 19.000000)">
				<g id="Group-19-Copy-2" transform="translate(0.000000, 3.000000)">
					<g id="Group-7">
						<path id="Triangle-2-Copy" class="st0" d="M20.1,3.9l12.4,22.7c0.8,1.5,0.3,3.3-1.2,4.1c-0.4,0.2-0.9,0.4-1.4,0.4H5.1
							c-1.7,0-3-1.3-3-3c0-0.5,0.1-1,0.4-1.4L14.9,3.9c0.8-1.5,2.6-2,4.1-1.2C19.4,2.9,19.9,3.4,20.1,3.9z"/>
						<rect id="Rectangle-5" x="16" y="9" class="st1" width="3" height="13"/>
						<rect id="Rectangle-5-Copy" x="16" y="24" class="st1" width="3" height="3"/>
					</g>
				</g>
			</g>
		</g>
	</g>
</g>
</svg>
